<?xml version="1.0" encoding="utf-8"?>
<!-- Generator: Adobe Illustrator 22.1.0, SVG Export Plug-In . SVG Version: 6.00 Build 0)  -->
<svg version="1.1" id="Слой_1" xmlns="http://www.w3.org/2000/svg" xmlns:xlink="http://www.w3.org/1999/xlink" x="0px" y="0px"
	 viewBox="0 0 1366 694" style="enable-background:new 0 0 1366 694;" xml:space="preserve">
<style type="text/css">
	.st0{fill:#FFFFFF;}
</style>
<g>
	<path class="st0" d="M912.9,107H453.1c-4.2,0-7.6,3.4-7.6,7.6v464.8c0,4.2,3.4,7.6,7.6,7.6h459.8c4.2,0,7.6-3.4,7.6-7.6V114.6
		C920.5,110.4,917.1,107,912.9,107z M460.7,122.2h280.4v45.5H460.7V122.2z M905.3,571.8H460.7V182.8h444.6V571.8z M905.3,167.6
		H756.3v-45.5h149.1V167.6z"/>
	<path class="st0" d="M831,153c4.5,0,8.1-3.6,8.1-8.1c0-4.5-3.6-8.1-8.1-8.1c-4.5,0-8.1,3.6-8.1,8.1C823,149.3,826.6,153,831,153z"
		/>
	<path class="st0" d="M789.6,153c4.5,0,8.1-3.6,8.1-8.1c0-4.5-3.6-8.1-8.1-8.1c-4.5,0-8.1,3.6-8.1,8.1
		C781.5,149.3,785.2,153,789.6,153z"/>
	<circle class="st0" cx="872.5" cy="144.9" r="8.1"/>
</g>
<g>
	<g>
		<path class="st0" d="M777.2,260.8v232.7l-188.4-49.7V301.2L777.2,260.8 M790,245l-214,45.9v162.7L790,510V245L790,245z"/>
	</g>
	<polygon class="st0" points="659.4,420.4 603.9,357.6 607.6,354.6 655.6,386.9 	"/>
	<polygon class="st0" points="659.4,420.4 734.9,320.6 750,315.7 681.1,446.6 	"/>
</g>
</svg>
