<?xml version="1.0" encoding="utf-8"?>
<!-- Generator: Adobe Illustrator 22.1.0, SVG Export Plug-In . SVG Version: 6.00 Build 0)  -->
<svg version="1.1" id="Capa_1" xmlns="http://www.w3.org/2000/svg" xmlns:xlink="http://www.w3.org/1999/xlink" x="0px" y="0px"
	 viewBox="-49 141 512 512" style="enable-background:new -49 141 512 512;" xml:space="preserve">
<style type="text/css">
	.st0{fill:#FFFFFF;}
</style>
<path class="st0" d="M386.6,365.5l-1.7-0.2V165c0-3.3-2.7-6-6.1-6H23.2c-3.4,0-6.1,2.7-6.1,6v414c0,3.3,2.7,6,6.1,6h355.5
	c3.4,0,6.1-2.7,6.1-6v-43.8l22.3,16.6c2.7,2,6.5,1.5,8.5-1.2c0.8-1,1.2-2.3,1.2-3.6v-71.1l0.8-0.6c13.1-10.4,21.3-25.1,23.1-41.6
	c1.8-16.4-2.9-32.6-13.3-45.5C417.3,375.7,402.8,367.6,386.6,365.5z M372.7,573H29.3V171h343.4v194.3l-1.8,0.2
	c-31.4,3.7-55.1,30.1-55.1,61.4c0,18.9,8.5,36.6,23.5,48.4l0.8,0.6V547c0,3.3,2.7,6,6.1,6c1.3,0,2.6-0.4,3.7-1.2l22.9-17V573z
	 M404.7,535l-22.6-16.8c-2.2-1.6-5.2-1.6-7.3,0L352.3,535v-51.7l2.8,1.1c5.1,2,10.4,3.4,15.9,4.1h0c1.3,0.2,2.6,0.3,3.9,0.4
	c1.3,0.1,2.6,0.1,3.9,0.1c2.6,0,5.2-0.2,7.8-0.5c1.3-0.2,2.6-0.4,4-0.6c3.9-0.8,7.8-1.9,11.4-3.4l2.8-1.1V535z M387.2,476.2
	c-2.9,0.5-5.8,0.8-8.7,0.8c-2.7,0-5.4-0.2-8.1-0.7c-21.5-3.4-37.8-19.8-41.6-40.3c-0.5-2.9-0.8-6-0.8-9c0-24.7,17.8-45.4,42.4-49.3
	c5.6-0.9,11.2-0.9,16.8,0.1c24.2,4.2,41.8,24.9,41.8,49.2C429,451.3,411.4,472.1,387.2,476.2z"/>
<rect x="109.5" y="423" class="st0" width="183.1" height="12"/>
<rect x="109.5" y="455" class="st0" width="183.1" height="12"/>
<rect x="109.5" y="487" class="st0" width="183.1" height="12"/>
<rect x="109.5" y="519" class="st0" width="183.1" height="12"/>
<g>
	<path class="st0" d="M118,296.8v46.7l67.4,9.6v-56.3H118z M118,296.8"/>
	<path class="st0" d="M185.4,221l-67.4,9.6v46.7h67.4V221z M185.4,221"/>
	<path class="st0" d="M284,277.3v-70.5l-79,11.2v59.3H284z M284,277.3"/>
	<path class="st0" d="M205,356l79,11.2v-70.5h-79V356z M205,356"/>
</g>
</svg>
