<?xml version="1.0" encoding="utf-8"?>
<!-- Generator: Adobe Illustrator 22.1.0, SVG Export Plug-In . SVG Version: 6.00 Build 0)  -->
<svg version="1.1" id="Слой_1" xmlns="http://www.w3.org/2000/svg" xmlns:xlink="http://www.w3.org/1999/xlink" x="0px" y="0px"
	 viewBox="0 0 1366 694" style="enable-background:new 0 0 1366 694;" xml:space="preserve">
<style type="text/css">
	.st0{display:none;}
	.st1{display:inline;fill:#56551C;}
	.st2{fill:#FFFFFF;}
</style>
<g>
	<g>
		<g class="st0">
			<rect x="206" y="29" class="st1" width="1022" height="615"/>
		</g>
		<g>
			<path class="st2" d="M915.3,107H450.7c-4.2,0-7.7,3.4-7.7,7.6v464.8c0,4.2,3.4,7.6,7.7,7.6h464.7c4.2,0,7.7-3.4,7.7-7.6V114.6
				C923,110.4,919.6,107,915.3,107z M458.3,122.2h283.4v45.5H458.3V122.2z M907.7,571.8H458.3V182.8h449.4V571.8z M907.7,167.6H757
				v-45.5h150.6V167.6z"/>
			<path class="st2" d="M832.6,153c4.5,0,8.2-3.6,8.2-8.1c0-4.5-3.7-8.1-8.2-8.1c-4.5,0-8.2,3.6-8.2,8.1
				C824.4,149.3,828.1,153,832.6,153z"/>
			<path class="st2" d="M790.7,153c4.5,0,8.2-3.6,8.2-8.1c0-4.5-3.7-8.1-8.2-8.1c-4.5,0-8.2,3.6-8.2,8.1
				C782.6,149.3,786.2,153,790.7,153z"/>
			<ellipse class="st2" cx="874.5" cy="144.9" rx="8.2" ry="8.1"/>
		</g>
		<g>
			<path class="st2" d="M577.7,240.8v68h-68v-68H577.7 M593.7,224.8h-100v100h100V224.8L593.7,224.8z"/>
		</g>
		<g>
			<polygon class="st2" points="593.7,340 493.7,340 493.7,356 593.7,356 593.7,340 			"/>
		</g>
	</g>
	<g>
		<g>
			<path class="st2" d="M719.6,240.8v68h-68v-68H719.6 M735.6,224.8h-100v100h100V224.8L735.6,224.8z"/>
		</g>
		<g>
			<polygon class="st2" points="735.6,340 635.6,340 635.6,356 735.6,356 735.6,340 			"/>
		</g>
	</g>
	<g>
		<g>
			<path class="st2" d="M861.6,240.8v68h-68v-68H861.6 M877.6,224.8h-100v100h100V224.8L877.6,224.8z"/>
		</g>
		<g>
			<polygon class="st2" points="877.6,340 777.6,340 777.6,356 877.6,356 877.6,340 			"/>
		</g>
	</g>
	<g>
		<g>
			<path class="st2" d="M577.7,405.8v68h-68v-68H577.7 M593.7,389.8h-100v100h100V389.8L593.7,389.8z"/>
		</g>
		<g>
			<polygon class="st2" points="593.7,505 493.7,505 493.7,521 593.7,521 593.7,505 			"/>
		</g>
	</g>
	<g>
		<g>
			<path class="st2" d="M719.6,405.8v68h-68v-68H719.6 M735.6,389.8h-100v100h100V389.8L735.6,389.8z"/>
		</g>
		<g>
			<polygon class="st2" points="735.6,505 635.6,505 635.6,521 735.6,521 735.6,505 			"/>
		</g>
	</g>
	<g>
		<g>
			<path class="st2" d="M861.6,405.8v68h-68v-68H861.6 M877.6,389.8h-100v100h100V389.8L877.6,389.8z"/>
		</g>
		<rect x="777.6" y="505" class="st2" width="100" height="16"/>
	</g>
</g>
</svg>
