<?xml version="1.0" encoding="utf-8"?>
<!-- Generator: Adobe Illustrator 22.1.0, SVG Export Plug-In . SVG Version: 6.00 Build 0)  -->
<svg version="1.1" id="Layer_1" xmlns="http://www.w3.org/2000/svg" xmlns:xlink="http://www.w3.org/1999/xlink" x="0px" y="0px"
	 viewBox="-49 141 512 512" style="enable-background:new -49 141 512 512;" xml:space="preserve">
<style type="text/css">
	.st0{fill:#FFFFFF;}
</style>
<path class="st0" d="M-21.7,287.5l131.1,64v51.3h85.1v-50.7l131.1-62.1v29.4l-6,0.9c-31.7,4.7-55.6,33.8-55.6,67.7
	c0,37.7,28.9,68.3,64.5,68.3c35.5,0,64.5-30.7,64.5-68.3c0-31.6-20.2-58.8-49.1-66.4l-5.2-1.4V216.1H216.1v-23.6
	c0-21.4-15.9-38.8-35.3-38.8h-57.6c-19.5,0-35.3,17.4-35.3,38.8v23.6H-34.7v295.8h240.4v127.9h245.6V482.3H205.7v14.4H-21.7V287.5z
	 M181.5,387.6h-59v-47.1h59V387.6z M380.7,388.1c0,29.9-23.4,54.3-52.2,54.3c-28.8,0-52.2-24.4-52.2-54.3
	c0-29.9,23.4-54.3,52.2-54.3C357.3,333.8,380.7,358.2,380.7,388.1z M100.8,192.6c0-13,10-23.6,22.3-23.6h57.6
	c12.3,0,22.3,10.6,22.3,23.6v23.6H100.8V192.6z M-21.7,231.4h347.3v42.2l-132.9,63l-0.1-14.9h-81l0.1,14.5L-21.7,271V231.4z
	 M220,498.1h217v128H220V498.1z"/>
</svg>
