<?xml version="1.0" encoding="utf-8"?>
<!-- Generator: Adobe Illustrator 22.1.0, SVG Export Plug-In . SVG Version: 6.00 Build 0)  -->
<svg version="1.1" id="Слой_1" xmlns="http://www.w3.org/2000/svg" xmlns:xlink="http://www.w3.org/1999/xlink" x="0px" y="0px"
	 viewBox="0 0 1366 694" style="enable-background:new 0 0 1366 694;" xml:space="preserve">
<style type="text/css">
	.st0{fill:#FFFFFF;}
</style>
<g>
	<path class="st0" d="M912.9,107H453.1c-4.2,0-7.6,3.4-7.6,7.6v464.8c0,4.2,3.4,7.6,7.6,7.6h459.8c4.2,0,7.6-3.4,7.6-7.6V114.6
		C920.5,110.4,917.1,107,912.9,107z M460.7,122.2h280.4v45.5H460.7V122.2z M905.3,571.8H460.7V182.8h444.6V571.8z M905.3,167.6
		H756.3v-45.5h149.1V167.6z"/>
	<path class="st0" d="M831,153c4.5,0,8.1-3.6,8.1-8.1c0-4.5-3.6-8.1-8.1-8.1c-4.5,0-8.1,3.6-8.1,8.1C823,149.3,826.6,153,831,153z"
		/>
	<path class="st0" d="M789.6,153c4.5,0,8.1-3.6,8.1-8.1c0-4.5-3.6-8.1-8.1-8.1c-4.5,0-8.1,3.6-8.1,8.1
		C781.5,149.3,785.2,153,789.6,153z"/>
	<circle class="st0" cx="872.5" cy="144.9" r="8.1"/>
</g>
<g>
	<path class="st0" d="M732.4,370.6l-66.8-45.7c-1.5-1.1-4.3-1.7-6.7-0.6c-2.2,1-3.5,3.1-3.7,5.9l0,91.4l0,0.1c0.3,3.9,2.7,5.5,4,6
		c0.8,0.3,1.8,0.5,2.7,0.5c1.4,0,2.8-0.4,3.8-1.2l66.6-45.5c1.4-0.8,2.8-2.9,3-5.2C735.4,374.8,734.9,372.5,732.4,370.6z M716.8,376
		l-48.2,33.1v-66.1L716.8,376z"/>
	<path class="st0" d="M683,253.5c-67.5,0-122.5,55-122.5,122.5s55,122.5,122.5,122.5s122.5-55,122.5-122.5S750.5,253.5,683,253.5z
		 M683,485.2c-60.2,0-109.2-49-109.2-109.2s49-109.2,109.2-109.2s109.2,49,109.2,109.2S743.2,485.2,683,485.2z"/>
</g>
</svg>
