<?xml version="1.0" encoding="utf-8"?>
<!-- Generator: Adobe Illustrator 22.1.0, SVG Export Plug-In . SVG Version: 6.00 Build 0)  -->
<svg version="1.1" id="Слой_1" xmlns="http://www.w3.org/2000/svg" xmlns:xlink="http://www.w3.org/1999/xlink" x="0px" y="0px"
	 viewBox="0 0 1366 680" style="enable-background:new 0 0 1366 680;" xml:space="preserve">
<style type="text/css">
	.st0{fill:#FFFFFF;}
</style>
<path class="st0" d="M725.4,354.8h108.5v-76.2h-11v64.6h-86.5l0-64.6h-11l0,47.4H525V159.6l241.1-0.1l0.1,42.6l-1.2,0.7
	c-9.4,5.6-15.2,16-15.2,27.2c0,17.3,13.4,31.3,29.9,31.3c16.5,0,29.9-14,29.9-31.3c0-17.2-13.4-31.2-29.8-31.3l-2.5,0l-0.1-50.9H514
	v189.8h211.4V354.8z M779.6,210.5c5.1,0,9.9,2.1,13.5,6c3.8,4,5.7,9.5,5.3,15.1c-0.6,9.9-8.6,17.9-18.1,18.3c-0.2,0-0.5,0-0.7,0
	c-4.8,0-9.3-1.8-12.8-5.2c-3.9-3.7-6.1-9-6.1-14.4C760.7,219.3,769.2,210.5,779.6,210.5z"/>
<path class="st0" d="M514.1,425.3c0,17.3,13.4,31.3,29.9,31.3c16.5,0,29.9-14,29.9-31.3c0-17.3-13.4-31.3-29.9-31.3
	C527.5,394.1,514.1,408.1,514.1,425.3z M562.8,425.4c0,10.8-8.5,19.6-18.9,19.6c-10.4,0-18.9-8.8-18.9-19.6
	c0-10.8,8.5-19.6,18.9-19.6C554.4,405.8,562.8,414.6,562.8,425.4z"/>
<polygon class="st0" points="500.7,461.6 489.7,461.6 489.7,532.9 598.2,532.9 598.2,461.6 587.2,461.6 587.2,522.2 500.7,522.2 "/>
<polygon class="st0" points="638.9,461.6 628,461.6 628,532.9 736.4,532.9 736.4,461.6 725.5,461.6 725.5,522.2 638.9,522.2 "/>
<polygon class="st0" points="777.2,461.6 766.2,461.6 766.2,532.9 874.7,532.9 874.7,461.6 863.7,461.6 863.7,522.2 777.2,522.2 "/>
<path class="st0" d="M820.5,456.6c16.5,0,29.9-14,29.9-31.3c0-17.3-13.4-31.3-29.9-31.3c-16.5,0-29.9,14-29.9,31.3
	C790.6,442.6,804,456.6,820.5,456.6z M820.5,405.8c10.4,0,18.9,8.8,18.9,19.6c0,10.8-8.5,19.6-18.9,19.6c-10.4,0-18.9-8.8-18.9-19.6
	C801.6,414.6,810,405.8,820.5,405.8z"/>
<path class="st0" d="M652.3,425.3c0,17.3,13.4,31.3,29.9,31.3c16.5,0,29.9-14,29.9-31.3c0-17.3-13.4-31.3-29.9-31.3
	C665.7,394.1,652.3,408.1,652.3,425.3z M682.2,405.8c10.4,0,18.9,8.8,18.9,19.6c0,10.8-8.5,19.6-18.9,19.6
	c-10.4,0-18.9-8.8-18.9-19.6C663.3,414.6,671.8,405.8,682.2,405.8z"/>
<polygon class="st0" points="611.4,203.4 572.5,242.3 611.4,281.2 619.1,273.4 588,242.3 619.1,211.2 "/>
<polygon class="st0" points="664,281.2 702.9,242.3 664,203.4 656.2,211.2 687.3,242.3 656.2,273.4 "/>
</svg>
